HIERARCHY
ROOT root
{
	OFFSET	0	13.1	24.9
	CHANNELS 6  Xposition Yposition Zposition Xrotation Yrotation Zrotation
	JOINT spine_1
	{
		OFFSET	0	9.99999	0
		CHANNELS 3  Xrotation Yrotation Zrotation
		JOINT spine_2
		{
			OFFSET	0	112	-10
			CHANNELS 3  Xrotation Yrotation Zrotation
			JOINT spine_3
			{
				OFFSET	0	206.5	19.3
				CHANNELS 3  Xrotation Yrotation Zrotation
				JOINT spine_4
				{
					OFFSET	0	110.4	14.6
					CHANNELS 3  Xrotation Yrotation Zrotation
					JOINT neck_1
					{
						OFFSET	0	71.8	-50.3
						CHANNELS 3  Xrotation Yrotation Zrotation
						JOINT neck_2
						{
							OFFSET	0	86.2	-25.8
							CHANNELS 3  Xrotation Yrotation Zrotation
							JOINT head_ee
							{
								OFFSET	0	179.8	-8.7
								CHANNELS 3  Xrotation Yrotation Zrotation
								End Site
								{
									OFFSET	1	0	0
								}
							}
						}
					}
					JOINT left_clavicle
					{
						OFFSET	-43.2	22.4	-70.8
						CHANNELS 3  Xrotation Yrotation Zrotation
						JOINT left_shoulder
						{
							OFFSET	-93.9	-5.79999	48.7
							CHANNELS 3  Xrotation Yrotation Zrotation
							JOINT left_elbow
							{
								OFFSET	-291.4	-30.8	15.2
								CHANNELS 3  Xrotation Yrotation Zrotation
								JOINT left_lowarm_twist
								{
									OFFSET	-110.7	-3.89999	13.6
									CHANNELS 3  Xrotation Yrotation Zrotation
									JOINT left_hand
									{
										OFFSET	-110.7	-3.89999	13.6
										CHANNELS 3  Xrotation Yrotation Zrotation
										JOINT left_ee
										{
											OFFSET	-80.8	-5.10001	12.1
											CHANNELS 3  Xrotation Yrotation Zrotation
											End Site
											{
												OFFSET	1	0	0
											}
										}
									}
								}
							}
						}
					}
					JOINT right_clavicle
					{
						OFFSET	43.2	22.4	-70.8
						CHANNELS 3  Xrotation Yrotation Zrotation
						JOINT right_shoulder
						{
							OFFSET	93.9	-5.79999	48.7
							CHANNELS 3  Xrotation Yrotation Zrotation
							JOINT right_elbow
							{
								OFFSET	291.4	-30.8	15.2
								CHANNELS 3  Xrotation Yrotation Zrotation
								JOINT right_lowarm_twist
								{
									OFFSET	110.7	-3.89999	13.6
									CHANNELS 3  Xrotation Yrotation Zrotation
									JOINT right_hand
									{
										OFFSET	110.7	-3.89999	13.6
										CHANNELS 3  Xrotation Yrotation Zrotation
										JOINT right_ee
										{
											OFFSET	80.8	-5.10001	12.1
											CHANNELS 3  Xrotation Yrotation Zrotation
											End Site
											{
												OFFSET	1	0	0
											}
										}
									}
								}
							}
						}
					}
				}
			}
		}
	}
	JOINT left_hip
	{
		OFFSET	-82.8	-127.5	0.300001
		CHANNELS 3  Xrotation Yrotation Zrotation
		JOINT left_knee
		{
			OFFSET	-28.2	-396.7	2.2
			CHANNELS 3  Xrotation Yrotation Zrotation
			JOINT left_ankle
			{
				OFFSET	-11.7	-411.3	35.4
				CHANNELS 3  Xrotation Yrotation Zrotation
				JOINT left_toes
				{
					OFFSET	0	-60	-88.6
					CHANNELS 3  Xrotation Yrotation Zrotation
					JOINT left_foot_ee
					{
						OFFSET	-22.5	-16.5	-42.2
						CHANNELS 3  Xrotation Yrotation Zrotation
						End Site
						{
							OFFSET	1	0	0
						}
					}
				}
			}
		}
	}
	JOINT right_hip
	{
		OFFSET	82.8	-127.5	0.300001
		CHANNELS 3  Xrotation Yrotation Zrotation
		JOINT right_knee
		{
			OFFSET	28.2	-396.7	2.2
			CHANNELS 3  Xrotation Yrotation Zrotation
			JOINT right_ankle
			{
				OFFSET	11.7	-411.3	35.4
				CHANNELS 3  Xrotation Yrotation Zrotation
				JOINT right_toes
				{
					OFFSET	0	-60	-88.6
					CHANNELS 3  Xrotation Yrotation Zrotation
					JOINT right_foot_ee
					{
						OFFSET	22.5	-16.5	-42.2
						CHANNELS 3  Xrotation Yrotation Zrotation
						End Site
						{
							OFFSET	1	0	0
						}
					}
				}
			}
		}
	}
}
MOTION
Frames: 13
Frame Time: 0.02
2800.94 716.97 -1473.77 -0.54757150457 80.2656676333 0.273384586525 -0.893079 0.178116 1.97656 -0.890907 0.0520062 1.98389 -0.887589 -0.396434 1.94459 -0.892856 -0.0844113 1.98277 -7.41243 9.12338 -18.8729 -6.16121 30.4396 -17.4128 -0.0 0.0 -0.0 -4.51498 16.7892 -5.09487 17.1745 -25.092 72.71 2.61311 -52.3042 1.28327 22.3204 0.23925 -2.82321 3.76322 -6.2241 23.389 -0.0 0.0 -0.0 8.43657 -4.31817 -16.3151 -20.0818 25.7883 -62.2089 1.06691 27.8564 -0.264599 43.9435 0.570114 5.44891 1.35249 -25.484 -17.9746 0.0 0.0 0.0 -18.4348 37.3935 -2.65904 -10.2786 0.284846 1.54961 27.6736 -19.7067 -4.04414 -16.2581 0.0 0.0 -0.0 0.0 -0.0 27.7402 -1.58334 -5.50267 -3.8654 -0.139739 -0.576649 -2.73747 20.0489 -0.458941 -7.26334 0.0 0.0 0.0 0.0 0.0 
2800.94 716.97 -1473.77 -0.507655909795 79.4919364389 0.232838939713 -0.893079 0.178116 1.97656 -0.890907 0.0520062 1.98389 -0.887589 -0.396434 1.94459 -0.892856 -0.0844113 1.98277 -7.41243 9.12338 -18.8729 -6.16121 30.4396 -17.4128 -0.0 0.0 -0.0 -4.51498 16.7892 -5.09487 17.1745 -25.092 72.71 2.61311 -52.3042 1.28327 22.3204 0.23925 -2.82321 3.76322 -6.2241 23.389 -0.0 0.0 -0.0 8.43657 -4.31817 -16.3151 -20.0818 25.7883 -62.2089 1.06691 27.8564 -0.264599 43.9435 0.570114 5.44891 1.35249 -25.484 -17.9746 0.0 0.0 0.0 -18.4348 37.3935 -2.65904 -10.2786 0.284846 1.54961 27.6736 -19.7067 -4.04414 -16.2581 0.0 0.0 -0.0 0.0 -0.0 27.7402 -1.58334 -5.50267 -3.8654 -0.139739 -0.576649 -2.73747 20.0489 -0.458941 -7.26334 0.0 0.0 0.0 0.0 0.0 
2778.76004556 714.173 -1478.38807547 -0.693000764287 79.3242505314 -0.391157249852 -0.782857 0.243337 2.04548 -0.780536 0.112713 2.05681 -0.774856 -0.349705 2.03001 -0.780606 -0.0247848 2.05975 -5.41809 8.62813 -19.4331 -3.81754 30.3215 -18.8196 -0.0 0.0 -0.0 -5.95039 20.9461 -6.21426 11.544 -28.8268 72.1224 2.57099 -51.8531 1.25004 21.4151 0.251066 -2.70818 4.45217 -7.65345 27.8727 -0.0 0.0 -0.0 8.25418 -5.43095 -15.9114 -18.8787 26.4847 -62.452 1.11982 29.0173 -0.289793 44.1084 0.580022 5.46753 1.40474 -27.4751 -18.8324 0.0 0.0 0.0 -17.7685 35.9579 -3.50701 -12.2206 0.307211 1.84672 22.2383 -18.4079 -3.32228 -16.5762 0.0 0.0 -0.0 0.0 -0.0 25.8323 -1.47935 -5.1146 -1.17692 -0.046668 -0.174581 -7.49177 20.6763 -1.27641 -8.52698 0.0 0.0 0.0 0.0 0.0 
2778.8341432 714.173 -1478.7306547 -0.640514696849 78.4378887579 -0.444645780152 -0.782857 0.243337 2.04548 -0.780536 0.112713 2.05681 -0.774856 -0.349705 2.03001 -0.780606 -0.0247848 2.05975 -5.41809 8.62813 -19.4331 -3.81754 30.3215 -18.8196 -0.0 0.0 -0.0 -5.95039 20.9461 -6.21426 11.544 -28.8268 72.1224 2.57099 -51.8531 1.25004 21.4151 0.251066 -2.70818 4.45217 -7.65345 27.8727 -0.0 0.0 -0.0 8.25418 -5.43095 -15.9114 -18.8787 26.4847 -62.452 1.11982 29.0173 -0.289793 44.1084 0.580022 5.46753 1.40474 -27.4751 -18.8324 0.0 0.0 0.0 -17.7685 35.9579 -3.50701 -12.2206 0.307211 1.84672 22.2383 -18.4079 -3.32228 -16.5762 0.0 0.0 -0.0 0.0 -0.0 25.8323 -1.47935 -5.1146 -1.17692 -0.046668 -0.174581 -7.49177 20.6763 -1.27641 -8.52698 0.0 0.0 0.0 0.0 0.0 
2760.45336144 712.295 -1487.17060439 -4.38780214082 80.0580873341 2.76284513718 -0.348935 0.30778 2.15637 -0.346364 0.169974 2.17157 -0.33834 -0.303081 2.15703 -0.344831 0.0413026 2.17782 -5.74699 9.55625 -17.8179 -4.39409 30.7518 -16.8007 -0.0 0.0 -0.0 -6.71437 23.253 -6.63339 8.63635 -28.8884 71.8489 2.43391 -50.3199 1.14337 20.1644 0.264396 -2.54898 4.69723 -8.84304 29.1627 -0.0 0.0 -0.0 8.90803 -4.61493 -17.217 -17.2992 26.2001 -62.1741 1.04538 27.3768 -0.254619 44.1858 0.584695 5.47627 1.33101 -28.448 -18.6626 0.0 0.0 0.0 -17.1152 36.5688 -3.89734 -13.7526 0.317742 2.08154 20.4389 -15.7031 -3.01974 -16.7097 0.0 0.0 -0.0 0.0 -0.0 24.6405 -1.42673 -5.11065 0.497322 0.020798 0.0734833 -4.45913 22.4016 -0.768424 -8.59394 0.0 0.0 0.0 0.0 0.0 
2760.76453972 712.295 -1488.07651918 -3.89064252954 78.7745098531 2.25711312673 -0.348935 0.30778 2.15637 -0.346364 0.169974 2.17157 -0.33834 -0.303081 2.15703 -0.344831 0.0413026 2.17782 -5.74699 9.55625 -17.8179 -4.39409 30.7518 -16.8007 -0.0 0.0 -0.0 -6.71437 23.253 -6.63339 8.63635 -28.8884 71.8489 2.43391 -50.3199 1.14337 20.1644 0.264396 -2.54898 4.69723 -8.84304 29.1627 -0.0 0.0 -0.0 8.90803 -4.61493 -17.217 -17.2992 26.2001 -62.1741 1.04538 27.3768 -0.254619 44.1858 0.584695 5.47627 1.33101 -28.448 -18.6626 0.0 0.0 0.0 -17.1152 36.5688 -3.89734 -13.7526 0.317742 2.08154 20.4389 -15.7031 -3.01974 -16.7097 0.0 0.0 -0.0 0.0 -0.0 24.6405 -1.42673 -5.11065 0.497322 0.020798 0.0734833 -4.45913 22.4016 -0.768424 -8.59394 0.0 0.0 0.0 0.0 0.0 
2760.78947607 712.295 -1488.1463531 -3.85688396413 78.6751137071 2.22269019146 -0.348935 0.30778 2.15637 -0.346364 0.169974 2.17157 -0.33834 -0.303081 2.15703 -0.344831 0.0413026 2.17782 -5.74699 9.55625 -17.8179 -4.39409 30.7518 -16.8007 -0.0 0.0 -0.0 -6.71437 23.253 -6.63339 8.63635 -28.8884 71.8489 2.43391 -50.3199 1.14337 20.1644 0.264396 -2.54898 4.69723 -8.84304 29.1627 -0.0 0.0 -0.0 8.90803 -4.61493 -17.217 -17.2992 26.2001 -62.1741 1.04538 27.3768 -0.254619 44.1858 0.584695 5.47627 1.33101 -28.448 -18.6626 0.0 0.0 0.0 -17.1152 36.5688 -3.89734 -13.7526 0.317742 2.08154 20.4389 -15.7031 -3.01974 -16.7097 0.0 0.0 -0.0 0.0 -0.0 24.6405 -1.42673 -5.11065 0.497322 0.020798 0.0734833 -4.45913 22.4016 -0.768424 -8.59394 0.0 0.0 0.0 0.0 0.0 
2760.78424776 712.295 -1488.13174301 -3.86389894601 78.6959139981 2.22984421098 -0.348935 0.30778 2.15637 -0.346364 0.169974 2.17157 -0.33834 -0.303081 2.15703 -0.344831 0.0413026 2.17782 -5.74699 9.55625 -17.8179 -4.39409 30.7518 -16.8007 -0.0 0.0 -0.0 -6.71437 23.253 -6.63339 8.63635 -28.8884 71.8489 2.43391 -50.3199 1.14337 20.1644 0.264396 -2.54898 4.69723 -8.84304 29.1627 -0.0 0.0 -0.0 8.90803 -4.61493 -17.217 -17.2992 26.2001 -62.1741 1.04538 27.3768 -0.254619 44.1858 0.584695 5.47627 1.33101 -28.448 -18.6626 0.0 0.0 0.0 -17.1152 36.5688 -3.89734 -13.7526 0.317742 2.08154 20.4389 -15.7031 -3.01974 -16.7097 0.0 0.0 -0.0 0.0 -0.0 24.6405 -1.42673 -5.11065 0.497322 0.020798 0.0734833 -4.45913 22.4016 -0.768424 -8.59394 0.0 0.0 0.0 0.0 0.0 
2739.64257592 709.669 -1497.41699137 -4.74507727706 78.7458282398 3.12969255725 -0.0157214 0.519132 2.10538 -0.0133372 0.384141 2.13413 0.00247251 -0.0728303 2.16719 -0.00398044 0.270269 2.15151 -4.00137 10.0573 -16.2449 -2.60045 30.7122 -15.6404 -0.0 0.0 -0.0 -7.19403 23.2606 -7.31491 6.00883 -29.9075 71.0737 2.23671 -47.9265 0.994232 19.0009 0.273674 -2.40066 4.9103 -9.02772 30.7209 -0.0 0.0 -0.0 9.42479 -2.84564 -18.3365 -16.8053 26.1801 -62.1034 0.987634 26.0694 -0.228649 44.4679 0.601819 5.50804 1.54316 -29.5862 -20.1794 0.0 0.0 0.0 -15.2595 34.9108 -4.97669 -17.0349 0.319154 2.58507 19.0398 -14.1003 -2.80179 -17.2659 0.0 0.0 -0.0 0.0 -0.0 22.9643 -1.43418 -6.11419 2.06865 0.090697 0.304455 -3.4712 22.7194 -0.598827 -8.12 0.0 0.0 0.0 0.0 0.0 
2715.95691157 715.875 -1503.43976038 -9.07647200693 80.0456062275 7.38763914186 0.168353 0.603551 2.15899 0.170826 0.46498 2.193 0.190128 0.00123839 2.24172 0.18329 0.355173 2.21342 -3.54394 10.2422 -16.0177 -2.09768 30.92 -15.5332 -0.0 0.0 -0.0 -7.46919 24.5932 -7.25657 3.84984 -28.9234 70.6639 2.13972 -46.6612 0.922949 18.3868 0.277357 -2.32231 5.09636 -9.60933 31.8788 -0.0 0.0 -0.0 9.77966 -3.25466 -19.0214 -16.1089 26.0656 -62.4851 0.967472 25.606 -0.219862 44.0489 0.576439 5.46081 1.41876 -29.638 -19.4767 0.0 0.0 0.0 -13.8549 35.205 -5.39688 -17.5555 0.316727 2.66491 16.8095 -14.5294 -2.50847 -17.7522 0.0 0.0 -0.0 0.0 -0.0 21.8537 -1.45061 -6.37986 2.87646 0.129096 0.422444 -4.41914 22.6549 -0.763499 -9.89587 0.0 0.0 0.0 0.0 0.0 
2716.14922612 715.875 -1503.98497419 -8.75741183602 79.6820529617 7.06352187012 0.168353 0.603551 2.15899 0.170826 0.46498 2.193 0.190128 0.00123839 2.24172 0.18329 0.355173 2.21342 -3.54394 10.2422 -16.0177 -2.09768 30.92 -15.5332 -0.0 0.0 -0.0 -7.46919 24.5932 -7.25657 3.84984 -28.9234 70.6639 2.13972 -46.6612 0.922949 18.3868 0.277357 -2.32231 5.09636 -9.60933 31.8788 -0.0 0.0 -0.0 9.77966 -3.25466 -19.0214 -16.1089 26.0656 -62.4851 0.967472 25.606 -0.219862 44.0489 0.576439 5.46081 1.41876 -29.638 -19.4767 0.0 0.0 0.0 -13.8549 35.205 -5.39688 -17.5555 0.316727 2.66491 16.8095 -14.5294 -2.50847 -17.7522 0.0 0.0 -0.0 0.0 -0.0 21.8537 -1.45061 -6.37986 2.87646 0.129096 0.422444 -4.41914 22.6549 -0.763499 -9.89587 0.0 0.0 0.0 0.0 0.0 
2682.95390711 732.191 -1510.54519796 -4.45309044861 81.1524465897 3.18604707039 0.417975 0.601538 2.14984 0.420427 0.463552 2.18374 0.439397 0.0114726 2.23235 0.432627 0.3638 2.20255 -3.04929 9.04748 -17.9694 -1.31539 30.3327 -18.0192 -0.0 0.0 -0.0 -6.89434 23.8558 -6.69673 0.716284 -26.5298 70.362 1.58497 -38.1343 0.547857 16.1106 0.283676 -2.03167 5.39239 -12.786 32.4673 -0.0 0.0 -0.0 10.0184 -3.28224 -19.4984 -17.4905 25.6166 -63.3083 0.825181 22.2332 -0.162145 42.5563 0.488862 5.29113 1.47182 -29.528 -19.7538 0.0 0.0 0.0 -11.9551 29.9517 -7.72404 -19.6598 0.299531 2.98731 17.4975 -12.7193 -2.57122 -19.8496 0.0 0.0 -0.0 0.0 -0.0 19.489 -2.27963 -6.72398 -1.98111 -0.0764869 -0.294397 1.32565 20.421 0.220618 -9.76998 0.0 0.0 0.0 0.0 0.0 
2668.2435885 736.749 -1511.92255267 -5.02942454073 81.489759013 3.36291037643 0.52056 0.659769 2.09025 0.522837 0.525455 2.12797 0.543569 0.0874229 2.19012 0.537136 0.432133 2.14886 -2.91596 8.88969 -16.7798 -1.37481 29.1449 -16.7436 -0.0 0.0 -0.0 -5.77959 22.5789 -5.50153 -2.91075 -27.07 68.56 0.9787 -25.8645 0.224737 14.3479 0.280635 -1.80656 5.80597 -15.3271 34.2306 -0.0 0.0 -0.0 10.8746 -2.341 -21.3091 -18.0625 24.2375 -61.3237 0.715814 19.5242 -0.123156 42.6742 0.495616 5.30461 1.62696 -29.6523 -20.6798 0.0 0.0 0.0 -11.418 26.3741 -6.34061 -22.0836 0.265068 3.3576 18.1915 -8.15006 -2.59733 -21.2423 0.0 0.0 -0.0 0.0 -0.0 18.5148 -2.1029 -6.45111 -2.99356 -0.111628 -0.445801 4.33273 19.367 0.707288 -12.4435 0.0 0.0 0.0 0.0 0.0 
